<svg width="272" height="81" viewBox="0 0 272 81" fill="none" xmlns="http://www.w3.org/2000/svg">
<g clip-path="url(#clip0_2132_207)">
<mask id="mask0_2132_207" style="mask-type:alpha" maskUnits="userSpaceOnUse" x="0" y="0" width="272" height="81">
<path d="M271.429 0.285034H0V80.285H271.429V0.285034Z" fill="white"/>
</mask>
<g mask="url(#mask0_2132_207)">
<path d="M98.26 4.33075V56.045C98.26 56.045 98.4371 64.0536 91.7714 71.6622C85.1057 79.2679 76.3543 80.1879 74.0343 80.1879H64.0629L65.3257 22.6593C65.3257 22.6593 65.4914 14.0107 72.76 6.78504C79.6857 -0.100671 88.5257 0.390758 88.5257 0.390758H94.44C94.44 0.387901 98.26 0.0307579 98.26 4.33075Z" fill="url(#paint0_linear_2132_207)"/>
<path d="M32.3143 45.1507L32.6057 80.1879H3.46854C3.46854 80.1879 -2.83824e-05 80.1079 -2.83824e-05 77.4164V66.9079C-2.83824e-05 66.9079 -0.1286 59.1707 5.8914 52.6736C11.9086 46.1764 19.0914 45.3222 21.3257 45.3222C23.5629 45.3222 32.3143 45.1507 32.3143 45.1507Z" fill="url(#paint1_linear_2132_207)"/>
<path d="M65.4714 80.188H30.9857L32.3114 45.1507C32.3114 45.1507 31.9029 36.8079 39.6543 29.3936C44.9743 24.3079 49.9114 23.0222 54.2229 23.0222H65.3171L65.4714 80.188Z" fill="url(#paint2_linear_2132_207)"/>
<path opacity="0.61" d="M64.0343 80.1907H65.4714L65.32 23.0279L64.0343 80.1936V80.1907Z" fill="#B50D31"/>
<path opacity="0.59" d="M32.3143 44.7193L30.9514 80.1879H32.5714L32.3143 44.7193Z" fill="#C84E28"/>
<path d="M133.809 29.7364H142.02V62.3707H133.809V58.9221C132.206 60.4421 130.594 61.5364 128.983 62.2079C127.319 62.8864 125.537 63.2273 123.74 63.2107C119.511 63.2107 115.854 61.5764 112.769 58.305C109.683 55.0364 108.143 50.9736 108.143 46.1107C108.143 41.0707 109.637 36.9421 112.62 33.7221C115.606 30.5021 119.231 28.8936 123.5 28.8936C125.463 28.8936 127.306 29.265 129.026 30.0021C130.749 30.745 132.34 31.8536 133.806 33.3307V29.7307L133.809 29.7364ZM125.171 36.4564C122.634 36.4564 120.526 37.3536 118.846 39.1421C117.166 40.9307 116.326 43.2279 116.326 46.0279C116.326 48.845 117.183 51.1679 118.889 52.9879C119.686 53.8666 120.661 54.5646 121.751 55.0352C122.84 55.5058 124.017 55.7381 125.203 55.7164C127.78 55.7164 129.917 54.8221 131.617 53.0307C133.317 51.2421 134.166 48.8993 134.166 45.9964C134.166 43.1564 133.317 40.8536 131.617 39.0964C129.917 37.3364 127.769 36.4564 125.171 36.4564ZM153.529 16.2964C154.969 16.2964 156.203 16.8164 157.234 17.8564C158.263 18.8964 158.777 20.1564 158.777 21.6364C158.777 23.0993 158.269 24.3421 157.249 25.3736C156.777 25.8685 156.209 26.2609 155.579 26.5264C154.95 26.7919 154.272 26.9246 153.589 26.9164C152.129 26.9164 150.883 26.3936 149.854 25.345C149.352 24.8439 148.957 24.2464 148.691 23.5885C148.426 22.9305 148.297 22.2257 148.311 21.5164C148.311 20.0764 148.817 18.8479 149.837 17.8279C150.315 17.3338 150.889 16.9431 151.524 16.6797C152.159 16.4163 152.841 16.2858 153.529 16.2964ZM149.42 29.7364H157.631V62.3707H149.42V29.7364ZM163.171 29.7364H170.211V33.8479C170.974 32.2279 171.983 30.9993 173.251 30.1564C174.514 29.3164 175.897 28.8993 177.4 28.8993C178.466 28.8993 179.577 29.1793 180.743 29.7393L178.186 36.7879C177.223 36.3079 176.429 36.0679 175.809 36.0679C174.546 36.0679 173.477 36.8479 172.606 38.4079C171.731 39.9679 171.297 43.0279 171.297 47.585L171.326 49.1764V62.3764H163.174V29.7336H163.171V29.7364ZM206.966 29.7364H215.18V62.3707H206.966V58.9221C205.366 60.4421 203.754 61.5364 202.143 62.2079C200.479 62.8864 198.697 63.2273 196.9 63.2107C192.671 63.2107 189.014 61.5764 185.929 58.305C182.843 55.0364 181.303 50.9736 181.303 46.1107C181.303 41.0707 182.797 36.9421 185.78 33.7221C188.766 30.5021 192.391 28.8936 196.66 28.8936C198.623 28.8936 200.466 29.265 202.186 30.0021C203.909 30.745 205.5 31.8536 206.966 33.3307V29.7307V29.7364ZM198.334 36.4564C195.794 36.4564 193.689 37.3536 192.006 39.1421C190.326 40.9307 189.491 43.2279 189.491 46.0279C189.491 48.845 190.343 51.1679 192.051 52.9879C192.848 53.8669 193.824 54.5651 194.913 55.0358C196.002 55.5064 197.179 55.7385 198.366 55.7164C200.943 55.7164 203.08 54.8221 204.78 53.0307C206.477 51.2421 207.329 48.8993 207.329 45.9964C207.329 43.1564 206.477 40.8536 204.78 39.0964C203.083 37.3364 200.934 36.4564 198.334 36.4564ZM222.583 17.1393H230.794V62.3764H222.583V17.1393ZM253.629 28.8993C256.714 28.8993 259.62 29.6679 262.337 31.2079C264.988 32.6808 267.188 34.8479 268.7 37.4764C270.223 40.1164 270.986 42.965 270.986 46.025C270.999 49.058 270.205 52.0399 268.686 54.665C267.206 57.2919 265.038 59.4652 262.414 60.9507C259.769 62.4593 256.851 63.2136 253.66 63.2136C248.969 63.2136 244.963 61.5479 241.643 58.2193C238.323 54.8879 236.663 50.845 236.663 46.085C236.663 40.985 238.54 36.7336 242.291 33.3336C245.577 30.3764 249.357 28.8993 253.629 28.8993ZM253.766 36.6079C251.214 36.6079 249.089 37.4936 247.394 39.265C245.697 41.0307 244.846 43.2993 244.846 46.0564C244.846 48.8964 245.683 51.1993 247.36 52.9564C249.04 54.7164 251.163 55.5964 253.734 55.5964C256.306 55.5964 258.446 54.7079 260.154 52.925C261.86 51.1479 262.714 48.8564 262.714 46.0564C262.714 43.2564 261.874 40.9821 260.2 39.2336C258.52 37.4821 256.377 36.6079 253.766 36.6079Z" fill="#4A4A4C"/>
</g>
</g>
<defs>
<linearGradient id="paint0_linear_2132_207" x1="80.6784" y1="-4.0715" x2="85.2813" y2="76.7731" gradientUnits="userSpaceOnUse">
<stop offset="0.0198" stop-color="#A75584"/>
<stop offset="0.4205" stop-color="#B6496F"/>
<stop offset="0.5737" stop-color="#BF4868"/>
<stop offset="0.819" stop-color="#D64455"/>
<stop offset="0.9056" stop-color="#E0434D"/>
</linearGradient>
<linearGradient id="paint1_linear_2132_207" x1="24.2785" y1="48.4442" x2="-3.94633" y2="120.206" gradientUnits="userSpaceOnUse">
<stop offset="0.00284" stop-color="#FFE065"/>
<stop offset="0.0241" stop-color="#FFDC54"/>
<stop offset="0.1284" stop-color="#FFC906"/>
<stop offset="0.1449" stop-color="#FEC30C"/>
<stop offset="0.26" stop-color="#F59D31"/>
<stop offset="0.3206" stop-color="#F28F3F"/>
<stop offset="0.4698" stop-color="#ED6948"/>
</linearGradient>
<linearGradient id="paint2_linear_2132_207" x1="46.2432" y1="22.9976" x2="57.7912" y2="84.4081" gradientUnits="userSpaceOnUse">
<stop offset="0.0181" stop-color="#CF5C6C"/>
<stop offset="0.0904" stop-color="#D85F68"/>
<stop offset="0.2682" stop-color="#EB6661"/>
<stop offset="0.3956" stop-color="#F1685F"/>
<stop offset="0.6521" stop-color="#F0774F"/>
<stop offset="0.9568" stop-color="#F08441"/>
</linearGradient>
<clipPath id="clip0_2132_207">
<rect width="272" height="80" fill="white" transform="translate(0 0.285034)"/>
</clipPath>
</defs>
</svg>
