<svg width="376" height="80" viewBox="0 0 376 80" fill="none" xmlns="http://www.w3.org/2000/svg">
<path d="M156 16V64H147.667V26.3333H147.556L132.667 64H127.111L111.889 26.3333H111.778V64H104.111V16H116.111L129.889 51.5556H130.111L144.667 16H156ZM162.889 19.6667C162.889 18.3333 163.333 17.2222 164.333 16.3333C165.333 15.4444 166.444 15 167.778 15C169.222 15 170.444 15.4444 171.333 16.3333C172.222 17.2222 172.778 18.3333 172.778 19.6667C172.778 21 172.333 22.1111 171.333 23C170.333 23.8889 169.222 24.3333 167.778 24.3333C166.333 24.3333 165.222 23.8889 164.333 23C163.444 22 162.889 20.8889 162.889 19.6667ZM171.889 29.5556V64H163.778V29.5556H171.889ZM196.444 58.1111C197.667 58.1111 199 57.8889 200.444 57.2222C201.889 56.6667 203.222 55.8889 204.444 55V62.5556C203.111 63.3333 201.667 63.8889 200 64.2222C198.333 64.5556 196.556 64.7778 194.556 64.7778C189.444 64.7778 185.333 63.2222 182.222 60C179 56.7778 177.444 52.6667 177.444 47.7778C177.444 42.2222 179.111 37.6667 182.333 34.1111C185.556 30.5556 190.111 28.7778 196.111 28.7778C197.667 28.7778 199.222 29 200.667 29.3333C202.222 29.6667 203.444 30.2222 204.333 30.6667V38.4444C203.111 37.5556 201.778 36.7778 200.556 36.3333C199.222 35.8889 197.889 35.5556 196.556 35.5556C193.333 35.5556 190.778 36.5556 188.778 38.6667C186.778 40.7778 185.889 43.5556 185.889 47.1111C185.889 50.5556 186.889 53.3333 188.778 55.2222C190.667 57.1111 193.222 58.1111 196.444 58.1111ZM227.444 29C228.111 29 228.667 29 229.222 29.1111C229.778 29.2222 230.222 29.3333 230.556 29.4444V37.6667C230.111 37.3333 229.556 37 228.667 36.7778C227.778 36.5556 226.889 36.3333 225.667 36.3333C223.667 36.3333 222 37.2222 220.667 38.8889C219.333 40.5556 218.556 43.1111 218.556 46.6667V64H210.444V29.5556H218.556V35H218.667C219.444 33.1111 220.556 31.6667 222 30.5556C223.556 29.5556 225.333 29 227.444 29ZM231 47.3333C231 41.6667 232.667 37.1111 235.778 33.7778C239 30.4444 243.444 28.7778 249.111 28.7778C254.444 28.7778 258.667 30.3333 261.667 33.5556C264.667 36.7778 266.222 41.1111 266.222 46.5556C266.222 52.1111 264.556 56.5556 261.444 59.8889C258.222 63.2222 253.889 64.8889 248.333 64.8889C243 64.8889 238.778 63.3333 235.667 60.2222C232.556 57 231 52.6667 231 47.3333ZM239.444 47C239.444 50.5556 240.222 53.3333 241.889 55.2222C243.556 57.1111 245.889 58.1111 248.889 58.1111C251.778 58.1111 254.111 57.2222 255.667 55.2222C257.222 53.3333 258 50.5556 258 46.7778C258 43.1111 257.222 40.3333 255.667 38.3333C254.111 36.4444 251.778 35.4444 249 35.4444C246 35.4444 243.778 36.4444 242.111 38.4444C240.222 40.5556 239.444 43.3333 239.444 47ZM278.333 38.6667C278.333 39.7778 278.667 40.7778 279.444 41.4444C280.222 42.1111 281.778 42.8889 284.333 43.8889C287.556 45.2222 289.889 46.6667 291.111 48.2222C292.444 49.8889 293.111 51.7778 293.111 54.1111C293.111 57.3333 291.889 59.8889 289.333 61.8889C286.889 63.8889 283.444 64.7778 279.222 64.7778C277.778 64.7778 276.222 64.5556 274.444 64.2222C272.667 63.8889 271.222 63.4444 270 62.8889V54.8889C271.444 55.8889 273.111 56.7778 274.778 57.3333C276.444 57.8889 278 58.2222 279.444 58.2222C281.222 58.2222 282.667 58 283.444 57.4444C284.333 56.8889 284.778 56.1111 284.778 54.8889C284.778 53.7778 284.333 52.8889 283.444 52C282.556 51.2222 280.778 50.3333 278.333 49.3333C275.333 48.1111 273.222 46.6667 272 45.1111C270.778 43.5556 270.111 41.5556 270.111 39.1111C270.111 36 271.333 33.4444 273.778 31.4444C276.222 29.4444 279.444 28.4444 283.333 28.4444C284.556 28.4444 285.889 28.5556 287.333 28.8889C288.778 29.2222 290.111 29.5556 291.111 29.8889V37.7778C290 37.1111 288.778 36.4444 287.333 35.8889C285.889 35.3333 284.444 35.1111 283.111 35.1111C281.556 35.1111 280.333 35.4444 279.556 36C278.778 36.7778 278.333 37.5556 278.333 38.6667ZM296.556 47.3333C296.556 41.6667 298.222 37.1111 301.333 33.7778C304.556 30.4444 309 28.7778 314.667 28.7778C320 28.7778 324.222 30.3333 327.222 33.5556C330.222 36.7778 331.778 41.1111 331.778 46.5556C331.778 52.1111 330.111 56.5556 327 59.8889C323.778 63.2222 319.444 64.8889 313.889 64.8889C308.556 64.8889 304.333 63.3333 301.222 60.2222C298.222 57 296.556 52.6667 296.556 47.3333ZM305 47C305 50.5556 305.778 53.3333 307.444 55.2222C309.111 57.1111 311.444 58.1111 314.444 58.1111C317.333 58.1111 319.667 57.2222 321.222 55.2222C322.778 53.3333 323.556 50.5556 323.556 46.7778C323.556 43.1111 322.778 40.3333 321.222 38.3333C319.667 36.4444 317.333 35.4444 314.556 35.4444C311.556 35.4444 309.333 36.4444 307.667 38.4444C305.889 40.5556 305 43.3333 305 47ZM358.778 36.2222H346.667V64H338.444V36.2222H332.667V29.5556H338.444V24.7778C338.444 21.2222 339.667 18.2222 342 15.8889C344.333 13.5556 347.333 12.4444 351 12.4444C352 12.4444 352.889 12.5556 353.667 12.5556C354.444 12.5556 355.111 12.7778 355.667 13V20C355.444 19.8889 354.889 19.6667 354.222 19.4444C353.556 19.2222 352.778 19.1111 351.889 19.1111C350.222 19.1111 348.889 19.6667 348 20.6667C347.111 21.6667 346.667 23.3333 346.667 25.3333V29.4444H358.778V21.6667L366.889 19.2222V29.4444H375.111V36.1111H366.889V52.2222C366.889 54.3333 367.333 55.7778 368 56.6667C368.778 57.5556 370 58 371.667 58C372.111 58 372.667 57.8889 373.333 57.6667C374 57.4444 374.556 57.2222 375 56.8889V63.5556C374.444 63.8889 373.667 64.1111 372.444 64.3333C371.222 64.5556 370.111 64.6667 368.889 64.6667C365.444 64.6667 362.889 63.7778 361.222 62C359.556 60.2222 358.667 57.4444 358.667 53.7778L358.778 36.2222Z" fill="#737373"/>
<path d="M38 3.05176e-05H0V38H38V3.05176e-05Z" fill="#F25022"/>
<path d="M80 3.05176e-05H42V38H80V3.05176e-05Z" fill="#7FBA00"/>
<path d="M38 42H0V80H38V42Z" fill="#00A4EF"/>
<path d="M80 42H42V80H80V42Z" fill="#FFB900"/>
</svg>
