<svg width="303" height="77" viewBox="0 0 303 77" fill="none" xmlns="http://www.w3.org/2000/svg">
<path d="M73.913 66.7198V63.9372H61.3913V75.9372H64.5217V71.4154H71.6522V68.6328H64.5217V66.7198H73.913Z" fill="#ED700F"/>
<path d="M103.305 63.9372H100.174V76.1111H103.305V63.9372Z" fill="#ED700F"/>
<path d="M129.392 66.7198H134.957V75.9372H138.087V66.7198H143.826V63.9372H129.392V66.7198Z" fill="#ED700F"/>
<path d="M180.696 70.8937L170.783 63.7632H169.74V75.9371H172.87V68.8067L182.783 76.285H183.826V63.9372H180.696V70.8937Z" fill="#ED700F"/>
<path d="M213.74 71.2415H220.522V68.285H213.74V66.7198H222.957V63.9372H210.609V75.9372H223.479V72.9806H213.74V71.2415Z" fill="#ED700F"/>
<path d="M257.74 68.285L254.435 68.1111C252.174 67.9372 252.174 67.5893 252.174 67.4154C252.174 66.7198 253.392 66.3719 255.653 66.3719C258.435 66.3719 259.826 66.8937 260.87 67.4154L261.392 67.7632L262.783 65.1545L262.261 64.8067C260.522 63.9372 258.609 63.4154 255.653 63.4154C251.479 63.4154 249.044 64.8067 249.044 67.4154C249.044 70.5459 252.696 70.8937 254.087 70.8937L257.392 71.0676C259.826 71.2415 259.826 71.5893 259.826 71.9372C259.826 72.8067 258.435 73.1545 256 73.1545C253.044 73.1545 251.479 72.4589 250.435 71.7632L249.913 71.4154L248.174 73.8502L248.696 74.198C250.435 75.4154 252.696 75.9372 255.826 75.9372C260.348 75.9372 262.783 74.3719 262.783 71.7632C263.131 68.6328 259.479 68.4589 257.74 68.285Z" fill="#ED700F"/>
<path d="M297.218 68.285L293.913 68.1111C291.653 67.9372 291.653 67.5893 291.653 67.4154C291.653 66.7198 292.87 66.3719 295.131 66.3719C297.913 66.3719 299.305 66.8937 300.348 67.4154L300.87 67.7632L302.261 65.1545L301.74 64.8067C300 63.9372 298.087 63.4154 295.131 63.4154C290.957 63.4154 288.522 64.8067 288.522 67.4154C288.522 70.5459 292.174 70.8937 293.566 70.8937L296.87 71.0676C299.305 71.2415 299.305 71.5893 299.305 71.9372C299.305 72.8067 297.913 73.1545 295.479 73.1545C292.522 73.1545 290.957 72.4589 289.913 71.7632L289.392 71.4154L287.653 73.8502L288.174 74.198C289.913 75.4154 292.174 75.9372 295.305 75.9372C299.826 75.9372 302.261 74.3719 302.261 71.7632C302.609 68.6328 298.957 68.4589 297.218 68.285Z" fill="#ED700F"/>
<path d="M54.9565 26.3719H61.2174V28.9806L61.5652 28.6328L61.913 28.1111C63.1304 26.5459 64.8696 25.8502 66.9565 25.6763H67.6522V31.4154C67.3043 31.2415 66.9565 31.2415 66.7826 31.2415C63.3043 30.8937 61.5652 32.8067 61.5652 36.285V49.3285H54.9565V26.3719Z" fill="#ED700F"/>
<path d="M75.1304 35.2415C76.1739 35.0676 77.2174 35.0676 78.2609 35.2415C80.3478 35.4154 81.7391 35.9371 82.9565 36.8067V35.2415C82.9565 32.8067 81.3913 31.4154 77.7391 30.8937C76.3478 30.7198 74.087 30.7198 71.6522 31.0676C71.3043 31.0676 70.9565 31.2415 70.6087 31.2415V26.198C72 26.0241 73.0435 25.8502 74.4348 25.8502C85.2174 25.5024 89.3913 28.9806 89.3913 35.5893V49.1545H82.9565V47.0676C82.7826 47.2415 82.4348 47.4154 82.2609 47.5893C80.5217 48.8067 78.6087 49.5024 76.1739 49.3284C70.6087 49.3284 67.3043 45.8502 67.4783 42.198C67.4783 38.8937 70.2609 35.9371 75.1304 35.2415ZM77.7391 45.6763C78.2609 45.6763 78.7826 45.6763 79.3043 45.6763C80.3478 45.5024 81.0435 45.3284 81.5652 44.8067C83.1304 43.7632 83.3043 41.6763 82.087 40.4589C81.3913 39.9371 80.5217 39.4154 79.1304 39.2415C75.6522 38.7198 73.7391 40.285 73.5652 42.3719C73.913 44.1111 75.1304 45.5024 77.7391 45.6763Z" fill="#ED700F"/>
<path d="M94.0869 26.3719H100.348V28.8067C100.522 28.6328 100.696 28.4589 100.87 28.285C102.609 26.7198 104.522 25.8502 106.783 25.8502C112.348 25.6763 115.826 29.5024 115.826 36.1111V49.3284H109.218V36.9806C109.218 33.6763 108 31.9371 105.74 31.2415C102.435 30.3719 100.522 32.285 100.522 35.7632V49.3284H93.913V26.3719H94.0869Z" fill="#ED700F"/>
<path d="M119.826 35.7632C120.348 32.6328 122.087 30.0241 124.522 28.285C129.044 25.1545 134.783 25.6763 137.566 28.9806V26.3719H143.826V49.1545C143.826 55.5893 139.479 59.5893 130.783 59.7632C129.392 59.7632 128.174 59.5893 126.783 59.4154V53.6763C128 54.0241 129.218 54.198 130.435 54.198C135.131 54.0241 137.218 52.1111 137.218 48.8067V47.0676C134.783 49.8502 130.435 50.7198 125.913 48.8067C122.435 47.2415 120.174 44.1111 119.653 40.1111C119.653 39.4154 119.479 38.7198 119.479 37.8502C119.653 37.1545 119.653 36.4589 119.826 35.7632ZM126.261 38.7198C126.783 42.5459 129.392 44.8067 133.044 44.1111C135.479 43.7632 137.218 41.8502 137.566 38.7198C137.74 38.0241 137.74 37.3285 137.566 36.6328C137.044 32.9806 134.957 31.0676 132 31.0676C128.87 31.0676 126.783 32.9806 126.435 36.6328C126.435 36.9806 126.261 37.3285 126.261 37.6763C126.261 38.198 126.261 38.3719 126.261 38.7198Z" fill="#ED700F"/>
<path d="M172.348 26.3719H174.957V20.4589L178.261 19.0676V26.3719H184.348L183.653 28.8067H178.087V40.9806V41.6763V43.0676C178.087 45.8502 179.826 47.2415 183.305 47.0676C183.653 47.0676 183.826 47.0676 184.174 46.8937V49.5024C183.826 49.5024 183.653 49.6763 183.305 49.6763C176.696 50.198 174.609 47.9371 174.609 41.1545V28.9806H171.653L172.348 26.3719Z" fill="#ED700F"/>
<path d="M187.305 17.3285L190.609 16.6328V30.0241C190.957 29.5024 191.479 28.9806 192 28.4589C193.218 27.2415 194.783 26.5458 196.522 26.0241C203.305 24.6328 208.174 28.9806 208.174 35.9371V49.3285H204.87V37.1545C204.87 31.5893 202.261 28.6328 197.74 28.8067C193.218 28.8067 190.435 31.7632 190.435 36.6328V49.5024H187.131L187.305 17.3285Z" fill="#ED700F"/>
<path d="M212.87 32.9806C214.435 29.1545 217.74 26.5458 221.913 25.8502C229.044 24.8067 235.131 29.8502 235.479 36.9806C235.479 37.5024 235.479 38.0241 235.479 38.3719H215.479C215.479 38.5458 215.479 38.7198 215.479 38.8937C215.653 41.8502 217.218 44.285 220 45.6763C223.479 47.4154 227.653 46.7198 230.783 43.7632C230.957 43.5893 231.131 43.4154 231.305 43.2415L233.74 44.9806C233.044 45.8502 232.174 46.5458 231.305 47.2415C228.174 49.5024 224.522 50.0241 220.87 48.9806C214.087 47.0676 210.783 41.3285 212.174 34.8937C212.348 34.5458 212.696 33.8502 212.87 32.9806ZM232.348 36.1111V35.7632V35.2415C232.348 34.8937 232.174 34.7198 232.174 34.198C231.131 30.8937 228.174 28.6328 224.522 28.4589C220.696 28.4589 217.566 30.7198 216.348 34.3719C216.174 34.8937 216 35.5893 216 36.1111H232.348Z" fill="#ED700F"/>
<path d="M253.566 25.6763C259.826 26.5459 263.826 31.2415 263.826 37.6763C263.826 44.1111 260 48.8067 253.566 49.6763C245.218 50.8937 239.131 45.5024 239.131 37.6763C239.131 29.8502 245.218 24.4589 253.566 25.6763ZM249.913 46.7198C250.957 46.8937 251.826 46.8937 252.87 46.7198C257.913 45.8502 261.044 41.5024 260 35.7633C259.653 33.8502 258.783 32.1111 257.392 30.8937C255.826 29.5024 253.74 28.6328 251.305 28.6328C248.87 28.6328 246.783 29.5024 245.218 30.8937C243.479 32.4589 242.435 34.8937 242.435 37.6763C242.609 42.5459 245.566 46.0241 249.913 46.7198Z" fill="#ED700F"/>
<path d="M268.348 26.3719H271.653V29.6763C271.826 29.5024 271.826 29.3285 272 29.1546C273.566 26.8937 275.653 25.8502 278.261 25.8502C278.609 25.8502 278.957 25.8502 279.131 25.8502V28.9806C278.783 28.9806 278.435 28.8067 278.087 28.8067C276 28.6328 274.261 29.5024 273.044 30.7198C272 31.9372 271.653 33.1546 271.653 35.2415V49.3285H268.348V26.3719Z" fill="#ED700F"/>
<path d="M281.913 26.3719H285.218V38.8937C285.218 43.7632 286.783 46.0241 290.609 46.7198C291.653 46.8937 292.696 46.8937 293.74 46.7198C297.566 46.0241 299.305 43.7632 299.305 39.5893V26.3719H302.609V48.4589C302.609 54.7198 297.913 58.8937 288.522 58.3719C288 58.3719 287.479 58.198 286.957 58.198V55.4154C287.479 55.5893 288 55.5893 288.522 55.5893C295.826 55.9372 299.305 52.9806 299.305 47.9372V45.8502C299.131 46.198 298.957 46.3719 298.783 46.5459C296.87 48.8067 294.435 49.8502 291.305 49.8502C285.74 49.8502 282.261 46.5459 281.913 41.5024C281.913 40.8067 281.913 40.8067 281.913 39.5893V26.3719Z" fill="#ED700F"/>
<path d="M171.131 39.5893C171.131 38.8937 171.131 38.3719 171.131 37.6763C170.957 30.8937 166.261 26.198 159.826 25.8502C158.261 25.8502 156.696 26.0241 155.131 26.5459C151.131 27.9372 148.348 31.2415 147.479 35.2415C146.087 41.3285 149.392 47.7633 156.348 49.6763C161.044 51.0676 165.392 49.6763 168.87 46.198C169.044 46.0241 169.218 45.8502 169.392 45.5024L164.348 42.198C164.174 42.3719 164.174 42.372 164 42.5459C163.131 43.5893 162.261 44.1111 161.218 44.4589C159.479 44.9806 157.913 44.8067 156.696 44.1111C154.957 43.0676 153.913 41.3285 154.087 39.9372H171.131V39.5893ZM160 30.372C162.783 30.372 165.044 32.285 165.218 35.0676V35.4154H154.087C154.261 35.0676 154.261 34.7198 154.435 34.3719C155.305 31.9372 157.566 30.372 160 30.372Z" fill="#ED700F"/>
<path d="M53.7391 51.9372C49.3913 52.6328 47.3043 48.9806 48.6956 45.8502C49.913 43.2415 50.4348 40.4589 50.4348 37.5024C50.4348 34.5459 49.913 31.7632 48.6956 29.1545C47.6522 26.5459 49.3913 22.3719 53.7391 23.0676C56 23.4154 57.913 21.1545 57.913 18.198C57.913 15.2415 56.1739 12.285 53.7391 11.7632C51.3043 11.0676 49.2174 13.3285 49.2174 16.6328C49.2174 22.3719 46.0869 24.6328 43.4783 22.5459C41.2174 20.6328 38.6087 19.4154 35.6522 18.8937C32.5217 18.3719 29.5652 18.8937 26.7826 20.1111C26.4348 20.285 26.2609 20.285 25.913 20.285C22.9565 20.6328 18.2609 17.1545 18.2609 10.198C18.2609 6.02415 14.6087 1.50241 9.91301 0.285021C4.69565 -0.932369 0.17392 1.85024 0.17392 6.7198C0.17392 11.5893 4.52174 16.1111 9.73911 16.8067C16.8696 17.8502 20.3478 22.0241 19.6522 25.5024C19.6522 25.8502 19.4783 26.198 19.1304 26.5459C17.2174 29.5024 16 33.3285 16 37.6763C16 41.6763 17.0435 45.3285 18.9565 48.285C19.1304 48.6328 19.3043 48.9806 19.3043 49.3285C19.8261 52.4589 16.8696 57.3285 9.56521 58.3719C4.52174 59.0676 0 63.5893 0 68.4589C0 73.3285 4.34783 76.1111 9.56521 74.7198C14.2609 73.5024 17.913 69.1545 17.913 64.8067C17.913 58.0241 22.0869 54.0241 25.5652 54.7198C25.7391 54.7198 26.0869 54.8937 26.2609 54.8937C29.0435 56.285 32.1739 56.8067 35.4783 56.285C38.4348 55.7632 41.0435 54.5459 43.3043 52.8067C45.3913 51.2415 49.0435 52.9806 49.0435 58.5458C49.0435 61.8502 51.1304 63.9372 53.5652 63.2415C55.8261 62.7198 57.7391 59.7632 57.7391 56.8067C57.7391 53.8502 56 51.5893 53.7391 51.9372ZM35.4783 49.3285C29.3913 50.0241 23.8261 44.8067 23.8261 37.6763C23.8261 30.5459 29.3913 25.3285 35.4783 26.0241C41.0435 26.7198 45.0435 31.9372 45.0435 37.6763C45.0435 43.4154 41.0435 48.6328 35.4783 49.3285Z" fill="#ED700F"/>
</svg>
