<svg width="522" height="80" viewBox="0 0 522 80" fill="none" xmlns="http://www.w3.org/2000/svg">
<g clip-path="url(#clip0_2132_141)">
<path d="M34.8239 55.8977C35.5067 57.5769 35.1585 59.9181 34.8239 61.5905C34.1411 63.9318 32.4818 66.6144 27.4563 66.6144C22.7721 66.6144 20.0886 63.9318 20.0886 59.9182V52.553H0V58.2458C0 74.9829 13.0556 80 27.1217 80C40.5186 80 51.5667 75.3174 53.5742 62.9352C54.3015 58.8398 54.3015 54.6484 53.5742 50.553C50.563 34.8192 22.0961 30.1367 20.1159 21.7681C19.7763 20.4494 19.7763 19.0663 20.1159 17.7476C20.7988 15.4063 22.1234 12.7306 26.8144 12.7306C31.164 12.7306 33.8475 15.4063 33.8475 19.42V24.1094H52.5773V18.751C52.5773 2.68965 37.842 0.00706863 27.4631 0.00706863C14.073 0.00706863 3.35265 4.36201 1.34516 16.3892C1.01058 19.7339 0.662337 22.751 1.67974 26.4302C4.69099 41.8431 31.1367 46.1912 34.8239 55.8977Z" fill="#0A3B93"/>
<path d="M276.912 55.563C277.582 57.2862 277.582 59.1981 276.912 60.9213C276.229 63.2626 274.569 65.9452 269.878 65.9452C265.187 65.9452 262.511 63.2626 262.511 59.249V52.2183H242.757V57.9111C242.757 74.2933 255.812 79.3308 269.544 79.3308C282.934 79.3308 293.989 74.6482 295.662 62.5937C296.666 56.2387 295.996 52.2183 295.662 50.5459C292.651 35.1467 264.518 30.4641 262.511 21.761C262.175 20.4419 262.175 19.0597 262.511 17.7406C263.194 15.3993 264.518 12.7235 269.209 12.7235C273.559 12.7235 275.908 15.3993 275.908 19.4129V24.1023H294.344V18.744C294.344 2.68261 279.943 3.05176e-05 269.564 3.05176e-05C256.509 3.05176e-05 245.789 4.35497 243.781 16.3822C243.06 19.7053 243.175 23.1553 244.116 26.4231C247.127 41.8224 273.245 46.1705 276.932 55.5425" fill="#0A3B93"/>
<path d="M430.601 2.34131L431.605 62.2592L414.193 2.34131H386.402V75.9793H404.818L403.814 14.0614L422.564 75.9793H449.017V2.34131H430.601Z" fill="#0A3B93"/>
<path d="M80.0267 2.34131L66.2952 76.9895H86.3906L96.7695 8.03413L106.814 76.9895H126.902L113.178 2.34131H80.0267Z" fill="#0A3B93"/>
<path d="M192.528 2.34131L183.153 60.5869L173.778 2.34131H143.311L141.638 76.9895H160.388L161.057 8.03413L173.778 76.9895H192.528L205.591 8.03413L205.925 76.9895H224.676L223.003 2.34131H192.528Z" fill="#0A3B93"/>
<path d="M339.526 65.6107C344.545 65.6107 346.218 61.9247 346.559 60.2524V2.34813H365.31V55.8974C365.31 57.2626 365.31 59.9179 364.975 60.9213C363.609 74.9827 352.582 79.3513 338.857 79.3513C325.132 79.3513 314.078 75.0032 312.739 60.9213C312.739 60.2387 312.405 57.5766 312.405 55.8974V2.34813H331.169V60.5869C332.842 62.2592 334.514 65.6107 339.54 65.6107" fill="#0A3B93"/>
<path d="M494.889 64.9418C500.249 64.9418 502.256 61.5903 502.591 59.5834V46.191H495.223V35.4811H521.676V55.563C521.692 57.2437 521.58 58.9231 521.341 60.5869C519.976 73.9793 508.286 79.0168 495.223 79.0168C482.161 79.0168 470.109 74.3343 469.105 60.5869C468.857 58.9241 468.746 57.2439 468.771 55.563V24.1023C468.771 22.7371 469.105 20.4231 469.105 19.0784C470.778 5.02389 482.168 0.648479 495.223 0.648479C508.279 0.648479 520.003 5.00342 521.341 19.0784C521.532 20.7476 521.532 22.4331 521.341 24.1023V26.4436H502.591V22.43C502.583 21.4155 502.471 20.4045 502.256 19.4129C501.922 17.7405 500.584 14.0614 494.889 14.0614C489.529 14.0614 487.856 17.7405 487.521 19.4129C487.229 20.6184 487.116 21.8605 487.187 23.0989V59.9179C487.869 61.5903 489.529 64.9418 494.889 64.9418Z" fill="#0A3B93"/>
</g>
<defs>
<clipPath id="clip0_2132_141">
<rect width="522" height="80" fill="white"/>
</clipPath>
</defs>
</svg>
